<svg id="visual" viewBox="0 0 900 600" width="900" height="600" xmlns="http://www.w3.org/2000/svg" xmlns:xlink="http://www.w3.org/1999/xlink" version="1.1"><path d="M0 43L13.7 44C27.3 45 54.7 47 82 54C109.3 61 136.7 73 163.8 84C191 95 218 105 245.2 99C272.3 93 299.7 71 327 64C354.3 57 381.7 65 409 74C436.3 83 463.7 93 491 95C518.3 97 545.7 91 573 81C600.3 71 627.7 57 654.8 62C682 67 709 91 736.2 97C763.3 103 790.7 91 818 87C845.3 83 872.7 87 886.3 89L900 91L900 0L886.3 0C872.7 0 845.3 0 818 0C790.7 0 763.3 0 736.2 0C709 0 682 0 654.8 0C627.7 0 600.3 0 573 0C545.7 0 518.3 0 491 0C463.7 0 436.3 0 409 0C381.7 0 354.3 0 327 0C299.7 0 272.3 0 245.2 0C218 0 191 0 163.8 0C136.7 0 109.3 0 82 0C54.7 0 27.3 0 13.7 0L0 0Z" fill="#0051bb"></path><path d="M0 121L13.7 118C27.3 115 54.7 109 82 117C109.3 125 136.7 147 163.8 156C191 165 218 161 245.2 156C272.3 151 299.7 145 327 144C354.3 143 381.7 147 409 149C436.3 151 463.7 151 491 150C518.3 149 545.7 147 573 135C600.3 123 627.7 101 654.8 109C682 117 709 155 736.2 162C763.3 169 790.7 145 818 136C845.3 127 872.7 133 886.3 136L900 139L900 89L886.3 87C872.7 85 845.3 81 818 85C790.7 89 763.3 101 736.2 95C709 89 682 65 654.8 60C627.7 55 600.3 69 573 79C545.7 89 518.3 95 491 93C463.7 91 436.3 81 409 72C381.7 63 354.3 55 327 62C299.7 69 272.3 91 245.2 97C218 103 191 93 163.8 82C136.7 71 109.3 59 82 52C54.7 45 27.3 43 13.7 42L0 41Z" fill="#045fdc"></path><path d="M0 241L13.7 241C27.3 241 54.7 241 82 274C109.3 307 136.7 373 163.8 385C191 397 218 355 245.2 344C272.3 333 299.7 353 327 362C354.3 371 381.7 369 409 360C436.3 351 463.7 335 491 333C518.3 331 545.7 343 573 325C600.3 307 627.7 259 654.8 264C682 269 709 327 736.2 356C763.3 385 790.7 385 818 372C845.3 359 872.7 333 886.3 320L900 307L900 137L886.3 134C872.7 131 845.3 125 818 134C790.7 143 763.3 167 736.2 160C709 153 682 115 654.8 107C627.7 99 600.3 121 573 133C545.7 145 518.3 147 491 148C463.7 149 436.3 149 409 147C381.7 145 354.3 141 327 142C299.7 143 272.3 149 245.2 154C218 159 191 163 163.8 154C136.7 145 109.3 123 82 115C54.7 107 27.3 113 13.7 116L0 119Z" fill="#0d6efd"></path><path d="M0 331L13.7 332C27.3 333 54.7 335 82 365C109.3 395 136.7 453 163.8 468C191 483 218 455 245.2 455C272.3 455 299.7 483 327 488C354.3 493 381.7 475 409 466C436.3 457 463.7 457 491 454C518.3 451 545.7 445 573 425C600.3 405 627.7 371 654.8 372C682 373 709 409 736.2 435C763.3 461 790.7 477 818 478C845.3 479 872.7 465 886.3 458L900 451L900 305L886.3 318C872.7 331 845.3 357 818 370C790.7 383 763.3 383 736.2 354C709 325 682 267 654.8 262C627.7 257 600.3 305 573 323C545.7 341 518.3 329 491 331C463.7 333 436.3 349 409 358C381.7 367 354.3 369 327 360C299.7 351 272.3 331 245.2 342C218 353 191 395 163.8 383C136.7 371 109.3 305 82 272C54.7 239 27.3 239 13.7 239L0 239Z" fill="#4186ff"></path><path d="M0 601L13.7 601C27.3 601 54.7 601 82 601C109.3 601 136.7 601 163.8 601C191 601 218 601 245.2 601C272.3 601 299.7 601 327 601C354.3 601 381.7 601 409 601C436.3 601 463.7 601 491 601C518.3 601 545.7 601 573 601C600.3 601 627.7 601 654.8 601C682 601 709 601 736.2 601C763.3 601 790.7 601 818 601C845.3 601 872.7 601 886.3 601L900 601L900 449L886.3 456C872.7 463 845.3 477 818 476C790.7 475 763.3 459 736.2 433C709 407 682 371 654.8 370C627.7 369 600.3 403 573 423C545.7 443 518.3 449 491 452C463.7 455 436.3 455 409 464C381.7 473 354.3 491 327 486C299.7 481 272.3 453 245.2 453C218 453 191 481 163.8 466C136.7 451 109.3 393 82 363C54.7 333 27.3 331 13.7 330L0 329Z" fill="#659dff"></path></svg>